HIERARCHY
ROOT Hips
{
	OFFSET 0.00000 0.00000 0.00000
	CHANNELS 6 Xposition Yposition Zposition Zrotation Yrotation Xrotation 
	JOINT LHipJoint
	{
		OFFSET 0 0 0
		CHANNELS 3 Zrotation Yrotation Xrotation
		JOINT LeftUpLeg
		{
			OFFSET 1.37959 -1.78713 0.86582
			CHANNELS 3 Zrotation Yrotation Xrotation
			JOINT LeftLeg
			{
				OFFSET 2.54611 -6.99539 0.00000
				CHANNELS 3 Zrotation Yrotation Xrotation
				JOINT LeftFoot
				{
					OFFSET 2.59951 -7.14211 0.00000
					CHANNELS 3 Zrotation Yrotation Xrotation
					JOINT LeftToeBase
					{
						OFFSET 0.18493 -0.50810 1.96120
						CHANNELS 3 Zrotation Yrotation Xrotation
						End Site
						{
							OFFSET 0.00000 -0.00000 1.02054
						}
					}
				}
			}
		}
	}
	JOINT RHipJoint
	{
		OFFSET 0 0 0
		CHANNELS 3 Zrotation Yrotation Xrotation
		JOINT RightUpLeg
		{
			OFFSET -1.33564 -1.78713 0.86582
			CHANNELS 3 Zrotation Yrotation Xrotation
			JOINT RightLeg
			{
				OFFSET -2.52705 -6.94302 0.00000
				CHANNELS 3 Zrotation Yrotation Xrotation
				JOINT RightFoot
				{
					OFFSET -2.55964 -7.03257 0.00000
					CHANNELS 3 Zrotation Yrotation Xrotation
					JOINT RightToeBase
					{
						OFFSET -0.25804 -0.70896 2.12109
						CHANNELS 3 Zrotation Yrotation Xrotation
						End Site
						{
							OFFSET -0.00000 -0.00000 1.11821
						}
					}
				}
			}
		}
	}
	JOINT LowerBack
	{
		OFFSET 0 0 0
		CHANNELS 3 Zrotation Yrotation Xrotation
		JOINT Spine
		{
			OFFSET -0.02031 2.24248 -0.18900
			CHANNELS 3 Zrotation Yrotation Xrotation
			JOINT Spine1
			{
				OFFSET 0.08342 2.24689 -0.03799
				CHANNELS 3 Zrotation Yrotation Xrotation
				JOINT Neck
				{
					OFFSET 0 0 0
					CHANNELS 3 Zrotation Yrotation Xrotation
					JOINT Neck1
					{
						OFFSET -0.11607 1.55844 0.24628
						CHANNELS 3 Zrotation Yrotation Xrotation
						JOINT Head
						{
							OFFSET 0.06877 1.60174 -0.17013
							CHANNELS 3 Zrotation Yrotation Xrotation
							End Site
							{
								OFFSET 0.03358 1.61266 -0.08543
							}
						}
					}
				}
				JOINT LeftShoulder
				{
					OFFSET 0 0 0
					CHANNELS 3 Zrotation Yrotation Xrotation
					JOINT LeftArm
					{
						OFFSET 3.47537 0.55866 -0.72348
						CHANNELS 3 Zrotation Yrotation Xrotation
						JOINT LeftForeArm
						{
							OFFSET 5.38154 -0.00000 0.00000
							CHANNELS 3 Zrotation Yrotation Xrotation
							JOINT LeftHand
							{
								OFFSET 3.33312 -0.00000 0.00000
								CHANNELS 3 Zrotation Yrotation Xrotation
								JOINT LeftFingerBase
								{
									OFFSET 0 0 0
									CHANNELS 3 Zrotation Yrotation Xrotation
									JOINT LeftHandIndex1
									{
										OFFSET 0.71079 -0.00000 0.00000
										CHANNELS 3 Zrotation Yrotation Xrotation
										End Site
										{
											OFFSET 0.57306 -0.00000 0.00000
										}
									}
								}
								JOINT LThumb
								{
									OFFSET 0 0 0
									CHANNELS 3 Zrotation Yrotation Xrotation
									End Site
									{
										OFFSET 0.58181 -0.00000 0.58181
									}
								}
							}
						}
					}
				}
				JOINT RightShoulder
				{
					OFFSET 0 0 0
					CHANNELS 3 Zrotation Yrotation Xrotation
					JOINT RightArm
					{
						OFFSET -3.27844 0.90739 -0.35708
						CHANNELS 3 Zrotation Yrotation Xrotation
						JOINT RightForeArm
						{
							OFFSET -5.16954 -0.00000 0.00000
							CHANNELS 3 Zrotation Yrotation Xrotation
							JOINT RightHand
							{
								OFFSET -3.38287 -0.00000 0.00000
								CHANNELS 3 Zrotation Yrotation Xrotation
								JOINT RightFingerBase
								{
									OFFSET 0 0 0
									CHANNELS 3 Zrotation Yrotation Xrotation
									JOINT RightHandIndex1
									{
										OFFSET -0.81797 -0.00000 0.00000
										CHANNELS 3 Zrotation Yrotation Xrotation
										End Site
										{
											OFFSET -0.65947 -0.00000 0.00000
										}
									}
								}
								JOINT RThumb
								{
									OFFSET 0 0 0
									CHANNELS 3 Zrotation Yrotation Xrotation
									End Site
									{
										OFFSET -0.66953 -0.00000 0.66953
									}
								}
							}
						}
					}
				}
			}
		}
	}
}
MOTION
Frames: 11
Frame Time: 0.033333
6.5018 18.0911 12.0689 0 0 0 0 0 0 -21 0 0 0 0 0 0 0 0 0 0 0 0 0 0 21 0 0 0 0 0 0 0 0 0 0 0 0 0 0 0 0 0 0 0 0 0 0 -16 0 0 21 0 0 11 0 0 0 -8 0 0 0 0 0 0 0 0 0 0 0 0 0 0 0 0 0 0 0 0 8 0 0 0 0 0 0 0 0 0 0 0 0 0 0 0 0 0
6.5000 18.0799 12.0775 178.7830 -11.8133 -175.6650 0.0000 0.0000 0.0000 -26.8835 1.4114 -9.2139 1.2857 7.1850 20.2646 0.5118 -3.2532 -12.7934 0.0393 1.2802 3.5201 0.0000 0.0000 0.0000 6.2919 8.6645 -6.6067 -0.6445 -5.1356 14.2958 0.0007 -5.8444 -8.3180 -0.1641 2.6095 -7.1934 -6.5190 1.4736 1.9974 -0.3926 1.8054 2.8216 3.2315 0.7358 1.6012 -12.9883 -7.3361 -5.8142 12.4958 -11.4524 16.3162 5.1739 -5.6618 7.3991 0.0000 -0.0000 0.0000 -86.6778 -1.9383 7.3504 16.0451 -25.5818 -3.6654 -0.0000 -0.0000 10.2844 -2.4358 38.4770 -1.5161 -7.1250 0.0000 -0.0000 -45.1007 62.6368 -21.5672 0.0000 -0.0000 0.0000 87.6310 0.0091 21.6401 -24.2060 35.3813 -7.8255 0.0000 -0.0000 -28.0777 -13.8761 17.6927 -4.2935 7.1250 -0.0000 -0.0000 9.2815 -11.9691 7.2530
6.5099 18.0819 12.0797 178.9130 -11.4822 -175.8790 0.0000 0.0000 0.0000 -26.7059 1.7526 -9.2856 1.3094 7.2486 20.4540 0.5229 -3.2732 -12.9327 0.0356 1.2176 3.3477 0.0000 0.0000 0.0000 6.5022 8.8592 -6.3041 -0.6279 -5.0704 14.1095 0.0059 -5.9141 -8.2697 -0.1356 2.3731 -6.5380 -6.6907 1.3342 2.3831 -0.1302 1.5855 2.8374 3.5935 0.6262 1.4135 -14.4317 -7.5863 -4.5348 13.2459 -11.3534 13.1456 5.7076 -5.6299 6.2884 0.0000 -0.0000 0.0000 -87.0946 -1.3596 6.8834 16.0404 -25.5754 -3.6634 -0.0000 -0.0000 10.0532 -1.8642 38.2522 -1.1544 -7.1250 0.0000 -0.0000 -44.2643 62.6256 -21.0693 0.0000 -0.0000 0.0000 87.3263 0.1611 24.0251 -29.4063 40.3790 -11.0229 0.0000 -0.0000 -32.6377 -15.0307 19.3318 -5.0798 7.1250 -0.0000 -0.0000 8.5692 -10.1915 6.9986
6.5197 18.0794 12.0831 179.0190 -11.3625 -175.6670 0.0000 0.0000 0.0000 -26.6008 1.4263 -9.4084 1.3034 7.2324 20.4058 0.5233 -2.8173 -12.9900 0.0421 1.3235 3.6395 0.0000 0.0000 0.0000 6.6153 9.1354 -6.5669 -0.6304 -5.0803 14.1377 0.0147 -6.0119 -8.1586 -0.1584 2.5646 -7.0689 -6.3389 1.1973 2.5238 -0.3558 1.3977 2.4812 3.1601 0.5671 0.9987 -13.6275 -7.9702 -5.0260 12.1387 -11.5399 12.3854 5.1744 -5.6925 6.0550 0.0000 0.0000 0.0000 -86.4007 -0.5099 7.4025 15.9107 -25.3993 -3.6076 -0.0000 -0.0000 9.7146 -2.1316 38.3681 -1.3235 -7.1250 0.0000 -0.0000 -44.6700 62.6389 -21.3182 0.0000 0.0000 0.0000 87.6635 0.6759 25.7933 -35.8974 45.4424 -15.4493 0.0000 -0.0000 -38.3095 -14.0343 20.7757 -5.0669 7.1250 -0.0000 -0.0000 9.2581 -8.8453 7.8301
6.5174 18.0718 12.0988 178.8970 -10.8864 -175.6920 0.0000 0.0000 0.0000 -26.7519 1.7875 -9.6303 1.3191 7.2741 20.5301 0.5446 -2.8852 -13.2519 0.0095 0.6282 1.7262 0.0000 0.0000 0.0000 6.3881 9.6741 -6.5432 -0.6324 -5.0882 14.1604 0.0053 -5.9185 -8.2945 -0.0596 1.5751 -4.3328 -6.4803 1.1392 2.6916 -0.2846 1.3050 2.3404 3.3105 0.5314 0.7646 -13.7839 -8.1304 -4.9239 11.4513 -11.5067 11.6126 4.9866 -5.6989 5.7644 0.0000 0.0000 0.0000 -86.4772 -0.2731 6.8918 15.6126 -24.9925 -3.4807 -0.0000 -0.0000 10.0131 -2.8474 38.4687 -1.7722 -7.1250 0.0000 -0.0000 -45.4748 62.5226 -21.6655 0.0000 0.0000 0.0000 87.0658 1.8660 27.5675 -42.9552 49.7265 -20.6666 0.0000 -0.0000 -41.5564 -17.0660 22.2343 -6.6260 7.1250 -0.0000 -0.0000 7.4094 -6.9878 6.5090
6.5064 18.0807 12.0996 178.6400 -10.5466 -175.5550 0.0000 0.0000 0.0000 -27.0904 1.8124 -9.6985 1.3110 7.2527 20.4662 0.5432 -2.7526 -13.2515 0.0291 1.1015 3.0280 0.0000 0.0000 0.0000 6.0401 9.3393 -7.1328 -0.6713 -5.2395 14.5929 -0.0161 -5.3143 -8.0665 -0.0802 1.8269 -5.0276 -6.7913 1.0338 2.4942 -0.2012 1.1774 2.2705 3.5768 0.4658 0.8103 -14.0495 -8.3799 -5.0872 11.0916 -11.6079 10.7942 4.8996 -5.7468 5.5497 -0.0000 0.0000 0.0000 -86.7208 -0.5384 6.1988 15.2366 -24.4747 -3.3233 -0.0000 -0.0000 10.7382 -2.8170 38.1042 -1.7392 -7.1250 0.0000 -0.0000 -44.9643 62.2697 -21.1021 -0.0000 0.0000 0.0000 86.3811 4.2095 29.0213 -48.4552 52.3531 -24.9457 0.0000 -0.0000 -43.2176 -17.0762 24.9667 -7.3878 7.1250 -0.0000 -0.0000 7.5938 -4.2052 7.0801
6.4954 18.0762 12.0964 178.5460 -11.3774 -175.3470 0.0000 0.0000 0.0000 -27.1549 0.2584 -9.4600 1.3597 7.3807 20.8484 0.5600 -2.1973 -13.5523 0.0407 1.3018 3.5795 0.0000 0.0000 0.0000 5.9504 8.7595 -7.1121 -0.6519 -5.1645 14.3783 -0.0079 -5.5344 -8.1304 -0.0617 1.6031 -4.4099 -6.6878 0.7630 2.2695 -0.2051 0.8405 2.1374 3.5239 0.3054 0.8378 -13.9257 -8.7914 -5.0401 10.8743 -12.0416 9.9559 4.7740 -5.9481 5.3201 -0.0000 0.0000 0.0000 -86.7550 -1.0023 5.7122 15.0003 -24.1465 -3.2261 -0.0000 -0.0000 11.4329 -2.7316 38.5636 -1.7036 -7.1250 0.0000 -0.0000 -45.4938 62.6207 -21.7805 -0.0000 0.0000 0.0000 85.6556 6.0807 29.7084 -53.8553 54.4368 -29.2826 0.0000 -0.0000 -43.5911 -20.0827 26.5737 -9.2887 7.1250 -0.0000 -0.0000 5.9200 -2.0719 5.7331
6.5052 18.0648 12.0969 179.0280 -10.9642 -175.6300 0.0000 0.0000 0.0000 -26.6126 0.8048 -9.7638 1.4211 7.5387 21.3216 0.5877 -2.4351 -13.8534 0.0286 1.0911 2.9995 0.0000 0.0000 0.0000 6.4667 8.8667 -7.3891 -0.7160 -5.4073 15.0740 -0.0362 -4.9989 -8.2272 -0.0188 0.8846 -2.4314 -6.0826 1.0932 2.4175 -0.3572 1.2775 2.0232 3.0154 0.5425 0.6025 -13.7940 -9.1152 -4.2345 11.6483 -12.5690 8.6699 4.9927 -6.1891 4.9000 0.0000 -0.0000 0.0000 -86.1890 -1.4637 6.1728 14.9163 -24.0294 -3.1918 -0.0000 -0.0000 11.3781 -2.0649 38.1959 -1.2772 -7.1250 0.0000 -0.0000 -44.3790 62.5322 -21.0390 0.0000 -0.0000 0.0000 85.3948 8.0757 29.4475 -57.0721 55.4779 -31.9165 0.0000 -0.0000 -43.9108 -20.2941 26.7076 -9.4363 7.1250 -0.0000 -0.0000 5.8076 -1.8967 5.6415
6.5156 18.0637 12.0721 179.3800 -11.2723 -175.8210 0.0000 0.0000 0.0000 -26.1465 0.9270 -9.6793 1.4445 7.5978 21.4991 0.5921 -2.7476 -13.8570 0.0470 1.3992 3.8479 0.0000 0.0000 0.0000 6.8641 8.5296 -7.5307 -0.7803 -5.6397 15.7425 -0.0934 -4.4449 -9.0632 -0.0076 -0.5644 1.5509 -5.6667 1.1015 2.5048 -0.4182 1.2913 1.7509 2.7151 0.5732 0.2808 -13.6092 -9.3973 -3.7229 11.7265 -13.0062 8.2436 4.9736 -6.4135 4.7344 0.0000 -0.0000 0.0000 -85.8749 -1.8473 6.1077 14.9990 -24.1448 -3.2256 -0.0000 -0.0000 11.1586 -1.8922 38.1123 -1.1681 -7.1250 0.0000 -0.0000 -44.1063 62.5170 -20.8663 0.0000 -0.0000 0.0000 84.8353 9.1450 29.3608 -58.3454 55.8527 -32.9680 0.0000 -0.0000 -43.2300 -21.5267 28.7116 -10.7300 7.1250 -0.0000 -0.0000 5.3129 0.3948 5.3725
6.5323 18.0481 12.0498 178.8320 -11.6020 -175.9140 0.0000 0.0000 0.0000 -26.5832 2.5011 -9.7488 1.3817 7.4380 21.0196 0.5367 -4.3935 -13.0407 0.0476 1.4085 3.8736 0.0000 0.0000 0.0000 6.4494 7.8943 -8.5684 -1.0020 -6.3700 17.8619 -0.1481 -3.8603 -9.7326 -0.0001 -0.0532 0.1463 -6.2348 1.2083 2.7987 -0.7343 1.3829 1.5694 2.6967 0.6260 -0.0838 -14.3195 -9.7925 -4.2482 12.6476 -13.6896 9.2706 5.2599 -6.7238 5.3409 0.0000 -0.0000 0.0000 -85.7287 -2.1614 6.3788 15.6254 -25.0101 -3.4861 -0.0000 -0.0000 10.1967 -2.5911 38.9245 -1.6287 -7.1250 0.0000 -0.0000 -45.8523 62.9140 -22.3035 0.0000 -0.0000 0.0000 84.0512 9.8114 29.1787 -58.4599 55.8854 -33.0628 0.0000 -0.0000 -41.5101 -22.6376 29.1837 -11.4943 7.1250 -0.0000 -0.0000 4.7270 1.1054 4.8337
6.5512 18.0277 12.0285 178.6870 -12.0600 -175.9870 0.0000 0.0000 0.0000 -26.6503 2.1600 -9.4695 1.3930 7.4669 21.1062 0.5507 -4.3470 -13.2141 0.0247 1.0145 2.7887 0.0000 0.0000 0.0000 6.5557 6.9436 -9.4332 -1.1667 -6.8565 19.2910 -0.1929 -3.6441 -10.4597 -0.0002 0.1015 -0.2788 -6.1560 1.2710 2.9351 -1.0886 1.4416 1.4277 2.2813 0.6621 -0.3017 -14.5326 -10.1810 -3.9682 13.1003 -14.3555 9.4614 5.3710 -7.0542 5.4946 0.0000 -0.0000 0.0000 -85.2158 -2.3733 7.1718 16.2650 -25.8786 -3.7609 -0.0000 -0.0000 9.8506 -2.9791 38.7414 -1.8653 -7.1250 0.0000 -0.0000 -45.9643 62.6814 -22.1226 0.0000 -0.0000 0.0000 83.8085 9.9291 28.4162 -57.4148 55.5808 -32.1991 0.0000 -0.0000 -39.2089 -22.8369 29.7202 -11.7926 7.1250 -0.0000 -0.0000 4.6861 1.7003 4.8392
